<svg xmlns="http://www.w3.org/2000/svg" width="480pt" height="290pt" viewBox="0 0 480 290" version="1.1" xmlns:xlink="http://www.w3.org/1999/xlink">
  <g id="surface2" transform="matrix(1,0,0,1,-163.5,28)">
    <path style="stroke:none;fill-rule:evenodd;fill:rgb(15.294118%,29.411765%,58.039216%);fill-opacity:1" d="M 198.550781 85.351562 C 199.648438 102.214844 203.800781 117.417969 211 130.949219 C 218.234375 144.484375 228.632812 156.515625 242.199219 167.050781 C 255.734375 156.515625 266.117188 144.464844 273.351562 130.898438 C 280.582031 117.367188 284.75 102.183594 285.851562 85.351562 C 281.816406 84.917969 277.417969 84.199219 272.648438 83.199219 C 267.882812 82.167969 262.917969 80.714844 257.75 78.851562 C 252.617188 76.984375 247.433594 74.582031 242.199219 71.648438 C 236.964844 74.582031 231.765625 76.984375 226.601562 78.851562 C 221.433594 80.714844 216.484375 82.167969 211.75 83.199219 C 206.984375 84.199219 202.582031 84.917969 198.550781 85.351562 M 242.199219 178.550781 L 239.449219 176.5 C 223.214844 164.464844 210.949219 150.582031 202.648438 134.851562 C 194.316406 119.082031 189.816406 101.234375 189.148438 81.300781 L 189 76.898438 L 193.398438 76.550781 C 197.398438 76.316406 201.933594 75.734375 207 74.800781 C 212.035156 73.832031 217.351562 72.367188 222.949219 70.398438 C 228.550781 68.433594 234.167969 65.765625 239.800781 62.398438 L 242.199219 60.949219 L 244.550781 62.398438 C 250.214844 65.765625 255.832031 68.433594 261.398438 70.398438 C 267 72.398438 272.332031 73.867188 277.398438 74.800781 C 282.433594 75.734375 286.949219 76.316406 290.949219 76.550781 L 295.398438 76.898438 L 295.25 81.300781 C 294.582031 101.234375 290.082031 119.082031 281.75 134.851562 C 273.417969 150.617188 261.148438 164.5 244.949219 176.5 L 242.199219 178.550781 "/>
    <path style="stroke:none;fill-rule:evenodd;fill:rgb(36.470588%,66.274510%,86.666667%);fill-opacity:1" d="M 286 135.398438 C 287.035156 137.234375 287.351562 138.933594 286.949219 140.5 C 286.285156 142.632812 284.367188 144.234375 281.199219 145.300781 C 278 146.398438 273.851562 146.984375 268.75 147.050781 C 263.648438 147.117188 257.882812 146.667969 251.449219 145.699219 C 245.015625 144.699219 238.214844 143.199219 231.050781 141.199219 C 223.882812 139.132812 217.316406 136.832031 211.351562 134.300781 C 205.351562 131.734375 200.199219 129.066406 195.898438 126.300781 C 191.566406 123.566406 188.332031 120.898438 186.199219 118.300781 C 184.101562 115.699219 183.316406 113.316406 183.851562 111.148438 C 184.183594 110.015625 184.898438 109.035156 186 108.199219 C 187.101562 107.367188 188.550781 106.667969 190.351562 106.101562 C 185.984375 106.464844 182.464844 107.25 179.800781 108.449219 C 177.132812 109.648438 175.484375 111.265625 174.851562 113.300781 C 174.214844 115.734375 175.101562 118.417969 177.5 121.351562 C 179.933594 124.316406 183.582031 127.351562 188.449219 130.449219 C 193.316406 133.550781 199.148438 136.550781 205.949219 139.449219 C 212.714844 142.351562 220.148438 144.964844 228.25 147.300781 C 236.351562 149.601562 244.050781 151.300781 251.351562 152.398438 C 258.648438 153.5 265.183594 154.015625 270.949219 153.949219 C 276.75 153.882812 281.449219 153.214844 285.050781 151.949219 C 288.648438 150.714844 290.816406 148.898438 291.550781 146.5 C 291.984375 144.867188 291.714844 143.117188 290.75 141.25 C 289.785156 139.382812 288.199219 137.433594 286 135.398438 M 246.5 117.148438 L 246.5 130.949219 C 246.464844 132.148438 246.050781 133.148438 245.25 133.949219 C 244.417969 134.75 243.398438 135.167969 242.199219 135.199219 C 241 135.167969 240 134.75 239.199219 133.949219 C 238.398438 133.148438 237.984375 132.148438 237.949219 130.949219 L 237.949219 117.148438 C 236.015625 116.285156 234.464844 114.984375 233.300781 113.25 C 232.167969 111.515625 231.582031 109.550781 231.550781 107.351562 C 231.550781 105.351562 232.035156 103.550781 233 101.949219 C 233.933594 100.351562 235.199219 99.066406 236.800781 98.101562 C 238.433594 97.167969 240.234375 96.683594 242.199219 96.648438 C 244.199219 96.683594 246 97.167969 247.601562 98.101562 C 249.199219 99.066406 250.484375 100.351562 251.449219 101.949219 C 252.382812 103.550781 252.867188 105.351562 252.898438 107.351562 C 252.867188 109.550781 252.265625 111.515625 251.101562 113.25 C 249.933594 114.984375 248.398438 116.285156 246.5 117.148438 "/>
  </g>
  <g id="surface4">
    <text style="fill:rgb(39,75,148)" font-family="Palermo" font-size="49" transform="matrix(1,0,0,1,134.5,165)" xml:space="preserve"><![CDATA[SecureAccount]]></text>
  </g>
</svg>